Coordinates
version=1
nRows=19
nColumns=34
inDegrees=yes

Units are S.I. units (second, meters, Newtons, ...)
If the header above contains a line with 'inDegrees', this indicates whether rotational values are in degrees (yes) or radians (no).

endheader
time	pelvis_tilt	pelvis_list	pelvis_rotation	pelvis_tx	pelvis_ty	pelvis_tz	hip_flexion_r	hip_adduction_r	hip_rotation_r	knee_angle_r	ankle_angle_r	subtalar_angle_r	mtp_angle_r	hip_flexion_l	hip_adduction_l	hip_rotation_l	knee_angle_l	ankle_angle_l	subtalar_angle_l	mtp_angle_l	lumbar_extension	lumbar_bending	lumbar_rotation	arm_flex_r	arm_add_r	arm_rot_r	elbow_flex_r	pro_sup_r	arm_flex_l	arm_add_l	arm_rot_l	elbow_flex_l	pro_sup_l
      5.41666670	     20.19730414	     -7.94283388	      3.60275209	     -0.85232473	      0.46475260	     -0.23148678	     71.78889450	      1.71911797	    -14.59586803	     45.74957071	     28.41348688	     11.10648738	      0.00000000	     72.30129638	      0.23893051	      0.74787310	     37.38620286	     -7.68861625	    -15.68047883	      0.00000000	    -38.43800089	      2.56845185	     12.48489883	     43.21182704	     -9.23510104	     13.12435175	     68.18179745	     79.12916373	     -0.19372085	    -39.23252855	      8.29157563	     82.10710761	     71.35248725
      5.43333330	     20.48697139	     -8.16066075	      3.04350897	     -0.85869797	      0.46537984	     -0.23162244	     71.21424968	      2.38063288	    -14.80056886	     45.27663193	     27.52605337	      9.09534391	      0.00000000	     72.10017646	     -0.51613784	      0.56005156	     37.63424097	     -7.02318077	    -14.75694473	      0.00000000	    -37.98284722	      2.38094948	     11.01870416	     43.15607561	     -9.28099859	     12.83906184	     69.62473137	     79.74138005	      2.21097095	    -38.07979579	      7.91091212	     78.20665129	     71.34026983
      5.45000000	     21.16840926	     -8.50692456	      2.56783784	     -0.86540308	      0.46149754	     -0.22712394	     70.44783698	      3.48928704	    -14.98487982	     44.19824825	     26.03585984	      8.35575728	      0.00000000	     71.50426356	     -1.40626514	      0.52033663	     37.09903547	     -7.17821528	    -14.08869602	      0.00000000	    -38.07242048	      2.38605753	      9.82374020	     44.49109227	     -9.45473996	     13.25150365	     70.34824301	     80.59747391	      5.99311433	    -37.56980666	      8.97369536	     74.45044194	     71.59650861
      5.46666670	     21.64652797	     -8.60647985	      2.46735820	     -0.86275431	      0.46159959	     -0.22673829	     69.83836602	      3.93650664	    -14.80007445	     43.72507915	     24.53036900	      7.31522161	      0.00000000	     71.20094021	     -1.67661058	      0.51380374	     37.29563937	     -7.10989891	    -13.50919951	      0.00000000	    -38.36961744	      2.34265321	      7.45110814	     45.90248867	     -8.87036943	     13.46093610	     71.79992298	     80.77443993	      8.17773300	    -37.17782981	      8.49273571	     72.60543570	     71.55845029
      5.48333330	     22.37140451	     -9.25019926	      2.03208459	     -0.87049619	      0.46319305	     -0.22948748	     69.13900774	      4.94691997	    -14.82185759	     43.57564883	     22.74050211	      5.27121928	      0.00000000	     70.56717982	     -2.44439437	      0.85183957	     37.33453779	     -6.59279504	    -12.79250518	      0.00000000	    -39.19701447	      2.87393478	      6.35496676	     49.40154263	     -9.30040295	     14.55426499	     70.78561477	     81.35509975	     12.23510492	    -35.84240290	      8.71736340	     69.82159790	     71.77463962
      5.50000000	     22.72002603	     -9.28278462	      1.57743717	     -0.87139275	      0.46292954	     -0.22762285	     69.28135958	      5.21914676	    -14.95355408	     44.64847329	     21.41919447	      4.69510015	      0.00000000	     70.48221302	     -2.74456083	      0.98498912	     38.00855213	     -6.27557534	    -13.04942958	      0.00000000	    -40.06415384	      2.69302286	      4.75411460	     53.00183942	     -9.19689246	     14.70672656	     70.88930043	     81.60316512	     15.63191694	    -35.02041336	      8.40750433	     68.64233766	     71.87333038
      5.51666670	     22.43826076	     -9.75842387	      1.36754656	     -0.86548364	      0.46264167	     -0.22711690	     69.74839302	      5.60314292	    -15.46135419	     45.60699943	     22.49088573	      3.96445555	      0.00000000	     71.25263547	     -3.22253520	      1.23117955	     38.73711518	     -6.28626842	    -13.16698457	      0.00000000	    -40.12656995	      2.99593741	      3.15581538	     55.70092028	     -9.11934577	     14.84618985	     71.75504278	     81.83954412	     18.12420050	    -34.26122653	      7.85192238	     68.01908356	     71.96437674
      5.53333330	     22.75055081	    -10.20926003	      0.86244332	     -0.87824362	      0.46397728	     -0.23012442	     69.57108338	      5.97644453	    -15.88388572	     46.44840937	     22.03389253	      3.41838224	      0.00000000	     70.88961737	     -3.80940911	      1.26398440	     38.42684315	     -6.46492971	    -13.35629292	      0.00000000	    -41.22489150	      3.40664019	      1.56013599	     59.10261748	     -8.73677524	     15.83048019	     72.88150467	     82.36021531	     21.49438108	    -33.48200383	      6.93225414	     66.94063208	     72.25032810
      5.55000000	     23.14295146	    -10.44166094	      0.73844307	     -0.87764057	      0.46367177	     -0.23101537	     69.19213666	      6.05085684	    -16.11942333	     46.26908784	     22.85853658	      5.20432441	      0.00000000	     70.44680693	     -4.20794733	      1.35099552	     37.91848719	     -6.90952685	    -14.96888902	      0.00000000	    -42.46819362	      3.83032171	     -0.13458960	     63.07434989	     -8.02634799	     16.43301246	     74.10476795	     82.67935515	     24.82990868	    -33.23251051	      6.56100927	     66.01632603	     72.47186238
      5.56666670	     22.90974225	    -10.61817175	      0.51689938	     -0.87656244	      0.46805679	     -0.23274466	     69.02147296	      6.05606011	    -16.50904450	     45.63840876	     23.24448114	      6.17852434	      0.00000000	     70.27515300	     -4.37325327	      1.33111155	     37.29702169	     -7.00064416	    -15.87684215	      0.00000000	    -42.66466139	      4.13077000	     -1.63984507	     66.44055430	     -8.15656360	     17.63723248	     74.12171487	     83.31583766	     27.80160770	    -32.26858232	      6.05518756	     64.47364643	     72.93221779
      5.58333330	     22.21987891	    -10.61003597	      0.26292573	     -0.86733711	      0.46650208	     -0.23030008	     69.38846721	      6.10912418	    -16.61783784	     44.74730173	     23.81811074	      9.35034901	      0.00000000	     71.01567971	     -4.67442032	      1.11564988	     37.65575049	     -6.66970288	    -16.26248039	      0.00000000	    -42.23983342	      4.07046902	     -2.74142299	     69.74790624	     -8.42560867	     18.24836103	     74.74570541	     83.82164081	     30.54266091	    -31.31190247	      5.71828281	     63.92507194	     73.40107258
      5.60000000	     21.18067054	    -10.54092268	      0.45848275	     -0.86270069	      0.46699684	     -0.23238578	     70.22220883	      5.55639364	    -16.54563057	     44.69296325	     23.89595467	     10.69295465	      0.00000000	     72.40151547	     -4.24970088	      1.01020264	     38.79682706	     -5.83475690	    -16.17634659	      0.00000000	    -41.34633576	      4.12443196	     -3.88780580	     72.05065421	     -9.19342371	     18.58601608	     75.57426852	     84.82883697	     34.18627991	    -29.71205699	      6.07393606	     62.19643564	     74.57071016
      5.61666670	     19.80670596	    -10.46737449	     -0.02249295	     -0.86133706	      0.46589938	     -0.23174094	     71.72585191	      5.46826903	    -16.54812367	     45.25391075	     26.00294150	     13.14182976	      0.00000000	     73.74016391	     -4.45576009	      0.68855355	     39.20999747	     -4.95304802	    -14.85991015	      0.00000000	    -40.42395929	      3.61454539	     -4.89497554	     74.69186394	     -9.26406745	     18.21631592	     76.99937714	     85.37871576	     37.70012434	    -28.58373579	      6.21148673	     61.24385778	     75.28025837
      5.63333330	     18.45397881	    -10.65088337	     -0.23273627	     -0.86161671	      0.46354780	     -0.23366839	     73.25738655	      5.15144047	    -16.36187477	     45.63425680	     25.97990698	     14.58867971	      0.00000000	     75.43916596	     -4.34950796	      0.78347214	     39.31509747	     -5.53545931	    -14.00584754	      0.00000000	    -39.89258078	      2.94647597	     -5.72768477	     77.06103620	    -10.70049271	     17.68176180	     80.13773933	     86.48452737	     43.85508817	    -27.94372445	      9.74602284	     57.84560791	     76.96788530
      5.65000000	     17.79825946	    -10.98485106	     -0.71349598	     -0.86205114	      0.46275438	     -0.23356602	     73.98825865	      5.53925004	    -16.68396996	     45.93250524	     27.66026849	     18.41079913	      0.00000000	     75.97344519	     -4.74394549	      0.63384240	     38.58583423	     -5.46725013	    -12.69048429	      0.00000000	    -39.86076965	      2.45918378	     -7.74221466	     79.93182386	    -10.41707635	     17.54141536	     81.68395216	     86.85079499	     47.90587203	    -28.19955319	     10.13643004	     56.20191948	     77.36094116
      5.66666670	     17.90732746	    -11.36075027	     -0.94990239	     -0.87328359	      0.46671653	     -0.23806432	     73.19829594	      5.86853633	    -16.38434251	     43.98836853	     24.31300407	     16.91828817	      0.00000000	     75.54116094	     -4.81751955	      0.93803966	     37.79496578	     -6.22983750	    -11.74367586	      0.00000000	    -40.88776919	      2.21325053	     -9.07874139	     83.50020575	    -10.87724155	     18.28771177	     82.62532381	     87.82821091	     53.34159280	    -28.03838559	     12.98148862	     52.96539587	     78.25333173
      5.68333330	     18.17753650	    -10.87808562	     -1.51110956	     -0.87596374	      0.46678570	     -0.24461015	     71.90746117	      5.78347735	    -16.23957375	     40.29362897	     18.06972447	     10.73386596	      0.00000000	     74.51106884	     -4.54460670	      0.66789255	     36.92007023	     -6.54190201	    -12.02513137	      0.00000000	    -42.32146710	      1.40311095	    -11.15971598	     88.85280816	    -10.12367919	     19.67103830	     81.39973796	     88.47080316	     58.17202374	    -28.55078366	     15.13821787	     50.82879621	     78.55280286
      5.70000000	     17.87342219	    -10.00195751	     -1.73563675	     -0.87137804	      0.47182121	     -0.24493045	     71.08976388	      4.85652565	    -16.30053243	     37.28275218	      8.78090652	      3.09162070	      0.00000000	     74.20440868	     -3.79713975	      0.58024208	     36.94347958	     -7.20197577	    -13.23987330	      0.00000000	    -43.45552699	      0.42046899	    -13.44092938	     93.46814219	     -9.52566838	     20.73649658	     81.32034786	     88.95599595	     62.17342092	    -28.98981793	     16.17418242	     49.87312662	     78.62370115
      5.71666670	     16.20596591	     -9.64964270	     -2.17303787	     -0.85975006	      0.47923199	     -0.24357762	     71.86804897	      4.54324395	    -17.31034680	     37.09439183	      6.75428314	      2.62249201	      0.00000000	     75.24236307	     -3.75232472	      0.39458218	     37.13379861	     -7.29956307	    -13.41999496	      0.00000000	    -42.80396280	     -0.37120335	    -15.71689110	     95.79681532	     -8.90551585	     21.13518246	     83.14389563	     89.18628881	     64.30268738	    -29.34829179	     16.18619814	     49.60574055	     78.59214057
